<svg width="12" height="12" viewBox="0 0 12 12" fill="none" xmlns="http://www.w3.org/2000/svg">
<path d="M2.768 10.943C2.84888 10.9851 2.9397 11.0043 3.03069 10.9987C3.12169 10.9931 3.20943 10.9627 3.2845 10.911L9.7845 6.41101C9.85092 6.365 9.9052 6.30357 9.94269 6.23199C9.98017 6.16041 9.99976 6.08082 9.99976 6.00001C9.99976 5.91921 9.98017 5.83961 9.94269 5.76804C9.9052 5.69646 9.85092 5.63503 9.7845 5.58901L3.2845 1.08901C3.20949 1.03711 3.1217 1.00672 3.03066 1.00112C2.93961 0.995531 2.84877 1.01495 2.76796 1.05728C2.68716 1.09962 2.61948 1.16325 2.57225 1.24128C2.52502 1.31932 2.50003 1.4088 2.5 1.50001V10.5C2.49998 10.5913 2.52495 10.6808 2.57219 10.7589C2.61944 10.837 2.68715 10.9007 2.768 10.943Z" fill="black"/>
</svg>
