<svg width="24" height="24" viewBox="0 0 24 24" fill="none" xmlns="http://www.w3.org/2000/svg">
<path d="M20.4 9.59999H21.6V22.8H2.40002V9.59999H3.60002V7.19999C3.60002 3.88799 6.28802 1.19999 9.60002 1.19999C10.452 1.19999 11.268 1.37999 12 1.70399C12.7561 1.37054 13.5736 1.19887 14.4 1.19999C17.712 1.19999 20.4 3.88799 20.4 7.19999V9.59999ZM6.00002 7.19999V9.59999H8.40002V7.19999C8.40002 5.84399 8.86802 4.60799 9.62402 3.59999H9.60002C7.62002 3.59999 6.00002 5.21999 6.00002 7.19999ZM18 9.59999V7.19999C18 5.21999 16.38 3.59999 14.4 3.59999H14.376C15.1651 4.63472 15.5949 5.89873 15.6 7.19999V9.59999H18ZM12 4.53599C11.268 5.19599 10.8 6.14399 10.8 7.19999V9.59999H13.2V7.19999C13.2 6.14399 12.732 5.19599 12 4.53599Z" fill="#9CA3AF"/>
</svg>
