<svg width="91" height="39" viewBox="0 0 91 39" fill="none" xmlns="http://www.w3.org/2000/svg">
<path d="M45.1507 30.9863C45.1507 30.7454 45.0813 30.5277 44.9425 30.3334C44.8036 30.139 44.5452 29.9602 44.1673 29.797C43.7971 29.626 43.2611 29.4705 42.5592 29.3306C41.9267 29.1907 41.3367 29.0158 40.7891 28.8059C40.2492 28.5882 39.7787 28.3278 39.3776 28.0246C38.9843 27.7215 38.6757 27.3639 38.4521 26.9519C38.2284 26.5321 38.1166 26.0541 38.1166 25.5177C38.1166 24.9891 38.2284 24.4916 38.4521 24.0252C38.6834 23.5588 39.0112 23.1468 39.4355 22.7892C39.8674 22.4239 40.3919 22.1401 41.0089 21.938C41.6336 21.7281 42.3355 21.6232 43.1145 21.6232C44.202 21.6232 45.1353 21.7981 45.9143 22.1479C46.701 22.4977 47.3026 22.9797 47.7191 23.5938C48.1433 24.2001 48.3554 24.8919 48.3554 25.6693H45.0234C45.0234 25.3428 44.954 25.0513 44.8152 24.7948C44.6841 24.5305 44.4758 24.3245 44.1905 24.1768C43.9128 24.0213 43.5503 23.9436 43.1029 23.9436C42.7327 23.9436 42.4126 24.0096 42.1427 24.1418C41.8727 24.2662 41.6645 24.4372 41.5179 24.6548C41.3791 24.8647 41.3097 25.0979 41.3097 25.3545C41.3097 25.5488 41.3483 25.7237 41.4254 25.8792C41.5102 26.0269 41.6452 26.1629 41.8303 26.2873C42.0154 26.4116 42.2545 26.5283 42.5476 26.6371C42.8484 26.7381 43.2186 26.8314 43.6583 26.9169C44.5607 27.1035 45.3667 27.3484 46.0763 27.6515C46.7858 27.9469 47.3489 28.3511 47.7654 28.8642C48.1819 29.3695 48.3901 30.0341 48.3901 30.8581C48.3901 31.4178 48.2667 31.9308 48.0199 32.3972C47.7731 32.8636 47.4183 33.2717 46.9555 33.6215C46.4928 33.9636 45.9374 34.2318 45.2895 34.4261C44.6494 34.6127 43.9282 34.7059 43.1261 34.7059C41.9614 34.7059 40.9742 34.4961 40.1643 34.0763C39.3622 33.6565 38.7529 33.124 38.3364 32.4788C37.9276 31.8259 37.7232 31.1574 37.7232 30.4733H40.8816C40.897 30.9319 41.0127 31.3012 41.2287 31.581C41.4524 31.8608 41.7339 32.063 42.0733 32.1873C42.4203 32.3117 42.7944 32.3739 43.1955 32.3739C43.6274 32.3739 43.9861 32.3156 44.2714 32.199C44.5568 32.0746 44.7728 31.9114 44.9193 31.7093C45.0736 31.4994 45.1507 31.2584 45.1507 30.9863Z" fill="#2B3444"/>
<path d="M56.6853 21.8564V24.2351H49.3967V21.8564H56.6853ZM51.2015 18.7431H54.5334V30.6715C54.5334 31.0369 54.5797 31.3167 54.6723 31.511C54.7725 31.7054 54.9191 31.8414 55.1119 31.9191C55.3047 31.9891 55.5477 32.0241 55.8408 32.0241C56.049 32.0241 56.2341 32.0163 56.3961 32.0008C56.5658 31.9774 56.7085 31.9541 56.8242 31.9308L56.8357 34.4028C56.5504 34.4961 56.2418 34.5699 55.9102 34.6243C55.5785 34.6787 55.2122 34.7059 54.8111 34.7059C54.0784 34.7059 53.4382 34.5854 52.8906 34.3445C52.3507 34.0957 51.9342 33.6993 51.6411 33.1551C51.348 32.611 51.2015 31.8958 51.2015 31.0097V18.7431Z" fill="#2B3444"/>
<path d="M57.7497 28.2928V28.048C57.7497 27.1229 57.8808 26.2717 58.1431 25.4944C58.4053 24.7093 58.7871 24.0291 59.2884 23.4538C59.7898 22.8786 60.4068 22.4316 61.1395 22.1129C61.8723 21.7864 62.713 21.6232 63.6617 21.6232C64.6103 21.6232 65.4549 21.7864 66.1953 22.1129C66.9358 22.4316 67.5567 22.8786 68.058 23.4538C68.5671 24.0291 68.9527 24.7093 69.2149 25.4944C69.4772 26.2717 69.6083 27.1229 69.6083 28.048V28.2928C69.6083 29.2101 69.4772 30.0613 69.2149 30.8464C68.9527 31.6238 68.5671 32.3039 68.058 32.8869C67.5567 33.4622 66.9396 33.9092 66.2069 34.2279C65.4742 34.5466 64.6335 34.7059 63.6848 34.7059C62.7361 34.7059 61.8915 34.5466 61.1511 34.2279C60.4184 33.9092 59.7975 33.4622 59.2884 32.8869C58.7871 32.3039 58.4053 31.6238 58.1431 30.8464C57.8808 30.0613 57.7497 29.2101 57.7497 28.2928ZM61.0817 28.048V28.2928C61.0817 28.8214 61.128 29.315 61.2205 29.7737C61.3131 30.2323 61.4596 30.6365 61.6602 30.9863C61.8684 31.3284 62.1384 31.5966 62.47 31.7909C62.8017 31.9852 63.2066 32.0824 63.6848 32.0824C64.1476 32.0824 64.5448 31.9852 64.8764 31.7909C65.2081 31.5966 65.4742 31.3284 65.6747 30.9863C65.8753 30.6365 66.0218 30.2323 66.1143 29.7737C66.2146 29.315 66.2648 28.8214 66.2648 28.2928V28.048C66.2648 27.5349 66.2146 27.053 66.1143 26.6021C66.0218 26.1435 65.8714 25.7392 65.6631 25.3894C65.4626 25.0319 65.1965 24.752 64.8649 24.5499C64.5332 24.3478 64.1321 24.2467 63.6617 24.2467C63.1912 24.2467 62.7901 24.3478 62.4584 24.5499C62.1345 24.752 61.8684 25.0319 61.6602 25.3894C61.4596 25.7392 61.3131 26.1435 61.2205 26.6021C61.128 27.053 61.0817 27.5349 61.0817 28.048Z" fill="#2B3444"/>
<path d="M74.988 24.6082V34.4727H71.6561V21.8564H74.7914L74.988 24.6082ZM78.7596 21.7748L78.7018 24.8881C78.5398 24.8647 78.3431 24.8453 78.1118 24.8298C77.8881 24.8064 77.6837 24.7948 77.4986 24.7948C77.0281 24.7948 76.6193 24.857 76.2722 24.9813C75.9329 25.0979 75.6475 25.2728 75.4161 25.506C75.1924 25.7392 75.0227 26.023 74.9071 26.3572C74.7991 26.6915 74.7374 27.0724 74.7219 27.4999L74.0509 27.2901C74.0509 26.4738 74.1319 25.7237 74.2939 25.0396C74.4558 24.3478 74.6911 23.7453 74.9996 23.2323C75.3158 22.7193 75.7015 22.3228 76.1565 22.043C76.6116 21.7631 77.1322 21.6232 77.7184 21.6232C77.9035 21.6232 78.0925 21.6387 78.2853 21.6698C78.4781 21.6932 78.6362 21.7281 78.7596 21.7748Z" fill="#2B3444"/>
<path d="M85.8632 34.7059C84.8914 34.7059 84.0198 34.5505 83.2485 34.2395C82.4773 33.9208 81.8217 33.4816 81.2818 32.9219C80.7496 32.3622 80.3408 31.7132 80.0554 30.9747C79.77 30.2284 79.6273 29.4355 79.6273 28.596V28.1296C79.6273 27.1735 79.7623 26.2989 80.0323 25.506C80.3022 24.7131 80.6879 24.0252 81.1892 23.4422C81.6982 22.8592 82.3153 22.4122 83.0403 22.1013C83.7653 21.7826 84.5829 21.6232 85.493 21.6232C86.38 21.6232 87.1667 21.7709 87.8531 22.0663C88.5396 22.3617 89.1142 22.7814 89.577 23.3256C90.0475 23.8697 90.4023 24.5227 90.6413 25.2845C90.8804 26.0385 91 26.8781 91 27.8031V29.2023H81.0504V26.9636H87.7259V26.707C87.7259 26.2406 87.641 25.8248 87.4714 25.4594C87.3094 25.0863 87.0626 24.7909 86.7309 24.5732C86.3993 24.3556 85.9751 24.2467 85.4583 24.2467C85.0187 24.2467 84.6407 24.3439 84.3245 24.5382C84.0083 24.7326 83.7499 25.0047 83.5493 25.3545C83.3565 25.7043 83.21 26.1163 83.1097 26.5904C83.0172 27.0568 82.9709 27.5699 82.9709 28.1296V28.596C82.9709 29.1013 83.0403 29.5677 83.1791 29.9952C83.3257 30.4228 83.5301 30.792 83.7923 31.1029C84.0623 31.4139 84.3862 31.6549 84.7641 31.8259C85.1498 31.9969 85.5855 32.0824 86.0715 32.0824C86.6731 32.0824 87.2323 31.9658 87.749 31.7326C88.2735 31.4916 88.7247 31.1301 89.1026 30.6482L90.7223 32.4205C90.4601 32.8014 90.1014 33.1668 89.6464 33.5166C89.199 33.8664 88.6591 34.154 88.0267 34.3795C87.3942 34.5971 86.6731 34.7059 85.8632 34.7059Z" fill="#2B3444"/>
<path d="M23.369 21.9888L26.4723 26.2988C26.5291 25.2689 26.6994 24.2582 27.04 23.2284C27.3806 22.1604 27.8725 21.1878 28.4402 20.3296L23.369 21.9888ZM31.2218 32.8973C31.1839 30.3799 31.5624 27.691 32.4328 24.9829C33.3222 22.2557 34.6089 19.8147 36.1227 17.8122L32.2625 19.0709C30.7866 20.0435 29.5188 21.7218 28.8187 23.8005C28.1942 25.822 28.2131 27.8626 28.8187 29.5027L31.2218 32.8973ZM34.0223 36.7115C33.0762 37.5888 32.0544 38.3516 30.9569 39L30.3514 38.1609C27.6833 36.7115 24.1638 35.7579 20.3036 35.7579C16.4435 35.7579 12.9239 36.7115 10.2559 38.1609L9.65037 39C8.55288 38.3516 7.53107 37.5888 6.58496 36.7115L7.05802 36.1203C7.68245 33.0499 7.47431 29.312 6.26328 25.5359C5.05225 21.8171 3.08433 18.7086 0.832581 16.6108L0 16.3438C0.283834 15.0851 0.681203 13.8264 1.17318 12.7012L1.93007 12.9491C5.01441 12.6249 8.45827 11.2518 11.6561 8.92518C14.7972 6.6176 17.1247 3.77604 18.4114 0.972616V0.0762835L20.3036 0L22.1959 0.0762835V0.877262C23.4636 3.7379 25.81 6.63667 29.0079 8.96332C32.149 11.2709 35.555 12.6249 38.6015 12.9873L39.4341 12.7012C39.926 13.8264 40.3234 15.0851 40.6072 16.3438L39.6611 16.687C37.4094 18.7467 35.4415 21.8553 34.2494 25.5741C33.0573 29.2548 32.8302 32.8973 33.3979 35.8914L34.0223 36.7115ZM18.4114 18.3462V12.8729C17.768 13.6738 17.0111 14.4367 16.1029 15.1042C15.1757 15.7335 14.1917 16.2866 13.2078 16.687L18.4114 18.3462ZM18.4114 4.71051C16.9922 6.78924 15.0811 8.77262 12.7347 10.4699C10.4262 12.1863 7.92844 13.4068 5.50639 14.1315L9.23408 15.3521C11.0506 15.5046 13.151 14.8944 14.9865 13.5594C16.7652 12.2626 17.9573 10.5271 18.4114 8.79169V4.71051ZM22.1959 18.3462L27.3806 16.687C26.4155 16.3056 25.4505 15.7907 24.5611 15.1423C23.6339 14.4557 22.8392 13.6738 22.1959 12.8729V18.3462ZM35.063 14.1315C32.6599 13.4068 30.2 12.2054 27.8725 10.5081C25.5451 8.79169 23.6339 6.78924 22.1959 4.67237V8.62005C22.6121 10.4127 23.8232 12.2435 25.6776 13.5976C27.4373 14.8944 29.4431 15.4856 31.2218 15.3902L35.063 14.1315ZM17.2382 21.9888L12.0535 20.2914C12.6401 21.1496 13.1132 22.1222 13.4538 23.1902C13.8133 24.3154 13.9836 25.3834 14.0214 26.4513L17.2382 21.9888ZM4.37105 17.7741C5.88483 19.7765 7.17155 22.2176 8.0609 24.9447C8.95025 27.7291 9.32869 30.4944 9.27192 33.0499L11.5615 29.865C12.2806 28.1296 12.3563 25.9555 11.6561 23.7814C10.9749 21.6836 9.70714 20.0054 8.21228 19.0328L4.37105 17.7741ZM20.3036 24.22L17.1814 28.5491C19.2262 27.9919 21.3811 27.9919 23.4258 28.5491L20.3036 24.22ZM12.4319 35.1477C14.7783 34.3276 17.4653 33.8509 20.3036 33.8509C23.142 33.8509 25.8289 34.3276 28.1753 35.1477L25.7532 31.7912C24.3908 30.7042 22.4418 30.0367 20.3036 30.0367C18.1654 30.0367 16.2164 30.7042 14.854 31.7912L12.4319 35.1477Z" fill="#D05663"/>
</svg>
