<svg width="96" height="46" viewBox="0 0 96 46" fill="none" xmlns="http://www.w3.org/2000/svg">
<path d="M48.168 34.4961C48.168 34.2539 48.0977 34.0352 47.957 33.8398C47.8164 33.6445 47.5547 33.4648 47.1719 33.3008C46.7969 33.1289 46.2539 32.9727 45.543 32.832C44.9023 32.6914 44.3047 32.5156 43.75 32.3047C43.2031 32.0859 42.7266 31.8242 42.3203 31.5195C41.9219 31.2148 41.6094 30.8555 41.3828 30.4414C41.1562 30.0195 41.043 29.5391 41.043 29C41.043 28.4688 41.1562 27.9688 41.3828 27.5C41.6172 27.0312 41.9492 26.6172 42.3789 26.2578C42.8164 25.8906 43.3477 25.6055 43.9727 25.4023C44.6055 25.1914 45.3164 25.0859 46.1055 25.0859C47.207 25.0859 48.1523 25.2617 48.9414 25.6133C49.7383 25.9648 50.3477 26.4492 50.7695 27.0664C51.1992 27.6758 51.4141 28.3711 51.4141 29.1523H48.0391C48.0391 28.8242 47.9688 28.5312 47.8281 28.2734C47.6953 28.0078 47.4844 27.8008 47.1953 27.6523C46.9141 27.4961 46.5469 27.418 46.0938 27.418C45.7188 27.418 45.3945 27.4844 45.1211 27.6172C44.8477 27.7422 44.6367 27.9141 44.4883 28.1328C44.3477 28.3438 44.2773 28.5781 44.2773 28.8359C44.2773 29.0312 44.3164 29.207 44.3945 29.3633C44.4805 29.5117 44.6172 29.6484 44.8047 29.7734C44.9922 29.8984 45.2344 30.0156 45.5312 30.125C45.8359 30.2266 46.2109 30.3203 46.6562 30.4062C47.5703 30.5938 48.3867 30.8398 49.1055 31.1445C49.8242 31.4414 50.3945 31.8477 50.8164 32.3633C51.2383 32.8711 51.4492 33.5391 51.4492 34.3672C51.4492 34.9297 51.3242 35.4453 51.0742 35.9141C50.8242 36.3828 50.4648 36.793 49.9961 37.1445C49.5273 37.4883 48.9648 37.7578 48.3086 37.9531C47.6602 38.1406 46.9297 38.2344 46.1172 38.2344C44.9375 38.2344 43.9375 38.0234 43.1172 37.6016C42.3047 37.1797 41.6875 36.6445 41.2656 35.9961C40.8516 35.3398 40.6445 34.668 40.6445 33.9805H43.8438C43.8594 34.4414 43.9766 34.8125 44.1953 35.0938C44.4219 35.375 44.707 35.5781 45.0508 35.7031C45.4023 35.8281 45.7812 35.8906 46.1875 35.8906C46.625 35.8906 46.9883 35.832 47.2773 35.7148C47.5664 35.5898 47.7852 35.4258 47.9336 35.2227C48.0898 35.0117 48.168 34.7695 48.168 34.4961ZM59.8516 25.3203V27.7109H52.4688V25.3203H59.8516ZM54.2969 22.1914H57.6719V34.1797C57.6719 34.5469 57.7188 34.8281 57.8125 35.0234C57.9141 35.2188 58.0625 35.3555 58.2578 35.4336C58.4531 35.5039 58.6992 35.5391 58.9961 35.5391C59.207 35.5391 59.3945 35.5312 59.5586 35.5156C59.7305 35.4922 59.875 35.4688 59.9922 35.4453L60.0039 37.9297C59.7148 38.0234 59.4023 38.0977 59.0664 38.1523C58.7305 38.207 58.3594 38.2344 57.9531 38.2344C57.2109 38.2344 56.5625 38.1133 56.0078 37.8711C55.4609 37.6211 55.0391 37.2227 54.7422 36.6758C54.4453 36.1289 54.2969 35.4102 54.2969 34.5195V22.1914ZM60.9297 31.7891V31.543C60.9297 30.6133 61.0625 29.7578 61.3281 28.9766C61.5938 28.1875 61.9805 27.5039 62.4883 26.9258C62.9961 26.3477 63.6211 25.8984 64.3633 25.5781C65.1055 25.25 65.957 25.0859 66.918 25.0859C67.8789 25.0859 68.7344 25.25 69.4844 25.5781C70.2344 25.8984 70.8633 26.3477 71.3711 26.9258C71.8867 27.5039 72.2773 28.1875 72.543 28.9766C72.8086 29.7578 72.9414 30.6133 72.9414 31.543V31.7891C72.9414 32.7109 72.8086 33.5664 72.543 34.3555C72.2773 35.1367 71.8867 35.8203 71.3711 36.4062C70.8633 36.9844 70.2383 37.4336 69.4961 37.7539C68.7539 38.0742 67.9023 38.2344 66.9414 38.2344C65.9805 38.2344 65.125 38.0742 64.375 37.7539C63.6328 37.4336 63.0039 36.9844 62.4883 36.4062C61.9805 35.8203 61.5938 35.1367 61.3281 34.3555C61.0625 33.5664 60.9297 32.7109 60.9297 31.7891ZM64.3047 31.543V31.7891C64.3047 32.3203 64.3516 32.8164 64.4453 33.2773C64.5391 33.7383 64.6875 34.1445 64.8906 34.4961C65.1016 34.8398 65.375 35.1094 65.7109 35.3047C66.0469 35.5 66.457 35.5977 66.9414 35.5977C67.4102 35.5977 67.8125 35.5 68.1484 35.3047C68.4844 35.1094 68.7539 34.8398 68.957 34.4961C69.1602 34.1445 69.3086 33.7383 69.4023 33.2773C69.5039 32.8164 69.5547 32.3203 69.5547 31.7891V31.543C69.5547 31.0273 69.5039 30.543 69.4023 30.0898C69.3086 29.6289 69.1562 29.2227 68.9453 28.8711C68.7422 28.5117 68.4727 28.2305 68.1367 28.0273C67.8008 27.8242 67.3945 27.7227 66.918 27.7227C66.4414 27.7227 66.0352 27.8242 65.6992 28.0273C65.3711 28.2305 65.1016 28.5117 64.8906 28.8711C64.6875 29.2227 64.5391 29.6289 64.4453 30.0898C64.3516 30.543 64.3047 31.0273 64.3047 31.543ZM78.3906 28.0859V38H75.0156V25.3203H78.1914L78.3906 28.0859ZM82.2109 25.2383L82.1523 28.3672C81.9883 28.3438 81.7891 28.3242 81.5547 28.3086C81.3281 28.2852 81.1211 28.2734 80.9336 28.2734C80.457 28.2734 80.043 28.3359 79.6914 28.4609C79.3477 28.5781 79.0586 28.7539 78.8242 28.9883C78.5977 29.2227 78.4258 29.5078 78.3086 29.8438C78.1992 30.1797 78.1367 30.5625 78.1211 30.9922L77.4414 30.7812C77.4414 29.9609 77.5234 29.207 77.6875 28.5195C77.8516 27.8242 78.0898 27.2188 78.4023 26.7031C78.7227 26.1875 79.1133 25.7891 79.5742 25.5078C80.0352 25.2266 80.5625 25.0859 81.1562 25.0859C81.3438 25.0859 81.5352 25.1016 81.7305 25.1328C81.9258 25.1562 82.0859 25.1914 82.2109 25.2383ZM89.4062 38.2344C88.4219 38.2344 87.5391 38.0781 86.7578 37.7656C85.9766 37.4453 85.3125 37.0039 84.7656 36.4414C84.2266 35.8789 83.8125 35.2266 83.5234 34.4844C83.2344 33.7344 83.0898 32.9375 83.0898 32.0938V31.625C83.0898 30.6641 83.2266 29.7852 83.5 28.9883C83.7734 28.1914 84.1641 27.5 84.6719 26.9141C85.1875 26.3281 85.8125 25.8789 86.5469 25.5664C87.2812 25.2461 88.1094 25.0859 89.0312 25.0859C89.9297 25.0859 90.7266 25.2344 91.4219 25.5312C92.1172 25.8281 92.6992 26.25 93.168 26.7969C93.6445 27.3438 94.0039 28 94.2461 28.7656C94.4883 29.5234 94.6094 30.3672 94.6094 31.2969V32.7031H84.5312V30.4531H91.293V30.1953C91.293 29.7266 91.207 29.3086 91.0352 28.9414C90.8711 28.5664 90.6211 28.2695 90.2852 28.0508C89.9492 27.832 89.5195 27.7227 88.9961 27.7227C88.5508 27.7227 88.168 27.8203 87.8477 28.0156C87.5273 28.2109 87.2656 28.4844 87.0625 28.8359C86.8672 29.1875 86.7188 29.6016 86.6172 30.0781C86.5234 30.5469 86.4766 31.0625 86.4766 31.625V32.0938C86.4766 32.6016 86.5469 33.0703 86.6875 33.5C86.8359 33.9297 87.043 34.3008 87.3086 34.6133C87.582 34.9258 87.9102 35.168 88.293 35.3398C88.6836 35.5117 89.125 35.5977 89.6172 35.5977C90.2266 35.5977 90.793 35.4805 91.3164 35.2461C91.8477 35.0039 92.3047 34.6406 92.6875 34.1562L94.3281 35.9375C94.0625 36.3203 93.6992 36.6875 93.2383 37.0391C92.7852 37.3906 92.2383 37.6797 91.5977 37.9062C90.957 38.125 90.2266 38.2344 89.4062 38.2344Z" fill="#2B3444"/>
<path d="M26.1049 25.4533L29.2482 29.785C29.3057 28.75 29.4783 27.7342 29.8232 26.6992C30.1682 25.6258 30.6666 24.6483 31.2416 23.7858L26.1049 25.4533ZM34.0591 36.4167C34.0207 33.8867 34.4041 31.1842 35.2857 28.4625C36.1866 25.7217 37.4899 23.2683 39.0232 21.2558L35.1132 22.5208C33.6182 23.4983 32.3341 25.185 31.6249 27.2742C30.9924 29.3058 31.0116 31.3567 31.6249 33.005L34.0591 36.4167ZM36.8957 40.25C35.9374 41.1317 34.9024 41.8983 33.7907 42.55L33.1774 41.7067C30.4749 40.25 26.9099 39.2917 22.9999 39.2917C19.0899 39.2917 15.5249 40.25 12.8224 41.7067L12.2091 42.55C11.0974 41.8983 10.0624 41.1317 9.10408 40.25L9.58325 39.6558C10.2157 36.57 10.0049 32.8133 8.77825 29.0183C7.55158 25.2808 5.55825 22.1567 3.27742 20.0483L2.43408 19.78C2.72158 18.515 3.12408 17.25 3.62242 16.1192L4.38908 16.3683C7.51325 16.0425 11.0016 14.6625 14.2407 12.3242C17.4224 10.005 19.7799 7.14916 21.0832 4.33166V3.43082L22.9999 3.35416L24.9166 3.43082V4.23582C26.2007 7.11082 28.5774 10.0242 31.8166 12.3625C34.9982 14.6817 38.4482 16.0425 41.5341 16.4067L42.3774 16.1192C42.8757 17.25 43.2782 18.515 43.5657 19.78L42.6074 20.125C40.3266 22.195 38.3332 25.3192 37.1257 29.0567C35.9182 32.7558 35.6882 36.4167 36.2632 39.4258L36.8957 40.25ZM21.0832 21.7925V16.2917C20.4316 17.0967 19.6649 17.8633 18.7449 18.5342C17.8057 19.1667 16.8091 19.7225 15.8124 20.125L21.0832 21.7925ZM21.0832 8.08832C19.6457 10.1775 17.7099 12.1708 15.3332 13.8767C12.9949 15.6017 10.4649 16.8283 8.01158 17.5567L11.7874 18.7833C13.6274 18.9367 15.7549 18.3233 17.6141 16.9817C19.4157 15.6783 20.6232 13.9342 21.0832 12.19V8.08832ZM24.9166 21.7925L30.1682 20.125C29.1907 19.7417 28.2132 19.2242 27.3124 18.5725C26.3732 17.8825 25.5682 17.0967 24.9166 16.2917V21.7925ZM37.9499 17.5567C35.5157 16.8283 33.0241 15.6208 30.6666 13.915C28.3091 12.19 26.3732 10.1775 24.9166 8.04999V12.0175C25.3382 13.8192 26.5649 15.6592 28.4432 17.02C30.2257 18.3233 32.2574 18.9175 34.0591 18.8217L37.9499 17.5567ZM19.8949 25.4533L14.6432 23.7475C15.2374 24.61 15.7166 25.5875 16.0616 26.6608C16.4257 27.7917 16.5982 28.865 16.6366 29.9383L19.8949 25.4533ZM6.86158 21.2175C8.39492 23.23 9.69825 25.6833 10.5991 28.4242C11.4999 31.2225 11.8832 34.0017 11.8257 36.57L14.1449 33.3692C14.8732 31.625 14.9499 29.44 14.2407 27.255C13.5507 25.1467 12.2666 23.46 10.7524 22.4825L6.86158 21.2175ZM22.9999 27.6958L19.8374 32.0467C21.9086 31.4866 24.0913 31.4866 26.1624 32.0467L22.9999 27.6958ZM15.0266 38.6783C17.4032 37.8542 20.1249 37.375 22.9999 37.375C25.8749 37.375 28.5966 37.8542 30.9732 38.6783L28.5199 35.305C27.1399 34.2125 25.1657 33.5417 22.9999 33.5417C20.8341 33.5417 18.8599 34.2125 17.4799 35.305L15.0266 38.6783Z" fill="#D05663"/>
</svg>
