<svg width="475" height="261" viewBox="0 0 475 261" fill="none" xmlns="http://www.w3.org/2000/svg">
<path d="M438.9 107.11C439.944 104.864 440.301 102.359 439.924 99.9111C439.548 97.463 438.455 95.181 436.784 93.3527C435.113 91.5243 432.939 90.2312 430.534 89.6364C428.13 89.0416 425.603 89.1716 423.272 90.01C412.091 93.6865 412.385 103.396 412.385 103.396C412.385 103.396 400.482 99.7476 394.639 110.046C388.797 120.344 405.346 129.15 417.838 122.586C417.838 122.586 443.488 131.63 445.388 117.76C446.623 108.83 438.9 107.11 438.9 107.11Z" fill="#5C72B5"/>
<path d="M103.312 0.425003C120.412 -2.425 119.462 14.675 119.462 14.675C119.462 14.675 134.9 21.5625 126.112 33.2C117.325 44.8375 96.1874 35.8125 96.1874 35.8125C96.1874 35.8125 88.1124 39.85 79.0874 39.1375C70.0624 38.425 66.2624 35.8125 66.2624 35.8125C66.2624 35.8125 52.0124 42.9375 41.7999 38.425C31.5874 33.9125 34.9124 10.4 54.6249 11.1125C54.6249 11.1125 56.5249 -12.875 77.1874 -16.4375C97.8499 -20 103.312 0.425003 103.312 0.425003Z" fill="#5C72B5"/>
<path d="M343.767 174.313C343.767 174.313 365.75 154.933 371.194 150.269C376.637 145.604 370.643 136.864 365.646 138.507C360.649 140.151 333.118 157.669 331.816 160.282C330.515 162.894 334.191 171.929 337.412 174.076C338.348 174.692 339.436 175.04 340.556 175.082C341.677 175.124 342.787 174.858 343.767 174.313Z" fill="#404B7C"/>
<path d="M343.396 171.273C343.486 171.274 343.573 171.244 343.643 171.188L345.448 169.753C350.36 164.671 357.418 159.436 362.092 155.969C366.994 152.33 367.422 151.95 367.175 151.418C367.175 151.314 367.08 151.2 367.032 151.067C366.497 149.515 365.47 148.181 364.106 147.267C364.044 147.227 363.971 147.206 363.897 147.206C363.823 147.206 363.751 147.227 363.688 147.267C349.666 155.342 339.359 167.53 339.254 167.654C339.22 167.694 339.195 167.74 339.179 167.79C339.163 167.841 339.158 167.894 339.163 167.946C339.168 167.998 339.184 168.049 339.21 168.095C339.235 168.141 339.27 168.182 339.311 168.214L343.111 171.216C343.196 171.271 343.298 171.292 343.396 171.273ZM344.935 169.155L343.387 170.38L340.147 167.825C341.829 165.925 351.338 155.332 363.897 148.046C365.031 148.859 365.884 150.004 366.339 151.323L366.434 151.561C364.925 152.9 363.339 154.149 361.684 155.304C356.972 158.781 349.894 164.034 344.935 169.155Z" fill="#5C72B5"/>
<path d="M331.084 183.3L340.404 186.644L342.959 178.759L346.085 169.117C343.653 165.269 339.292 167.293 339.292 167.293L332.984 179.595L331.084 183.3Z" fill="#ECBDBB"/>
<path d="M331.084 183.3L340.404 186.644L342.959 178.759C339.612 178.517 336.247 178.796 332.984 179.585L331.084 183.3Z" fill="#404B7C"/>
<path d="M342.38 201.35L346.18 189.494C346.18 189.494 341.164 180.83 333.83 180.83C326.496 180.83 323.95 182.806 323.95 182.806L319.086 193.446C320.327 195.305 321.94 196.887 323.824 198.091C325.708 199.294 327.821 200.093 330.03 200.438C334.093 201.254 338.241 201.56 342.38 201.35Z" fill="#D05663"/>
<path d="M164.844 237.298C164.844 237.298 171.161 245.126 180.044 254.313C182.067 256.403 184.233 258.569 186.485 260.725C194.921 268.81 274.075 296.17 296.542 288.636C297.195 288.422 297.83 288.158 298.442 287.848C307.467 283.193 316.986 263.974 324.596 244.718C333.383 222.478 339.625 200.172 339.625 200.172C339.625 200.172 335.217 188.772 322.905 192.876C322.905 192.876 305.425 218.45 292.857 234.752C287.698 241.45 283.357 246.58 281.457 247.739C278.806 249.306 268.271 245.373 256.519 240.063C238.631 231.978 217.94 220.692 217.94 220.692L207.224 224.046L164.844 237.298Z" fill="#6B81BE"/>
<path d="M164.844 237.298C164.844 237.298 171.161 245.126 180.044 254.313C198.094 244.917 214.671 225.908 214.671 225.908C214.671 225.908 211.821 225.129 207.195 224.008L164.844 237.298Z" fill="#404B7C"/>
<path d="M256.5 240.053L296.552 288.636C297.204 288.422 297.839 288.158 298.452 287.847C307.477 283.192 316.996 263.974 324.605 244.717L292.875 234.752C287.717 241.449 283.375 246.579 281.475 247.738C278.796 249.296 268.251 245.373 256.5 240.053Z" fill="#404B7C"/>
<path d="M186.78 256.174C186.849 256.175 186.918 256.156 186.978 256.121C187.038 256.086 187.088 256.036 187.122 255.975C191.197 248.926 182.856 242.171 182.771 242.105C182.689 242.048 182.59 242.025 182.492 242.039C182.394 242.053 182.305 242.104 182.243 242.182C182.181 242.259 182.151 242.357 182.159 242.456C182.167 242.555 182.213 242.646 182.286 242.713C182.362 242.779 190.181 249.116 186.447 255.585C186.412 255.644 186.393 255.712 186.392 255.78C186.391 255.849 186.409 255.917 186.442 255.976C186.476 256.036 186.525 256.086 186.584 256.121C186.644 256.156 186.711 256.174 186.78 256.174Z" fill="#D05663"/>
<path d="M223.203 255.186C227.886 255.186 233.102 252.84 233.368 252.716C233.462 252.674 233.536 252.595 233.572 252.498C233.609 252.401 233.605 252.293 233.562 252.199C233.519 252.104 233.441 252.031 233.344 251.994C233.247 251.958 233.139 251.961 233.045 252.004C232.969 252.004 225.54 255.376 220.695 254.113C213.218 252.156 193.145 241.117 192.974 241.012C192.883 240.962 192.776 240.95 192.676 240.978C192.576 241.007 192.492 241.074 192.442 241.164C192.391 241.255 192.379 241.362 192.407 241.462C192.436 241.562 192.503 241.646 192.594 241.696C193.42 242.152 212.924 252.887 220.495 254.873C221.38 255.093 222.29 255.198 223.203 255.186Z" fill="#D05663"/>
<path d="M283.974 266.055H284.05C295.526 263.718 321.946 217.263 330.524 199.184C330.549 199.137 330.565 199.086 330.57 199.033C330.575 198.981 330.569 198.927 330.553 198.877C330.536 198.826 330.51 198.78 330.475 198.74C330.44 198.7 330.397 198.668 330.349 198.645C330.301 198.622 330.249 198.61 330.196 198.608C330.143 198.606 330.09 198.615 330.04 198.634C329.991 198.654 329.946 198.683 329.908 198.72C329.871 198.758 329.841 198.802 329.821 198.852C319.647 220.303 294.225 263.195 283.898 265.295C283.812 265.321 283.738 265.376 283.688 265.451C283.638 265.526 283.616 265.616 283.625 265.706C283.634 265.795 283.673 265.879 283.737 265.943C283.801 266.006 283.884 266.046 283.974 266.055Z" fill="#D05663"/>
<path d="M375.801 168.157C375.801 168.157 402.562 156.225 409.155 153.404C415.748 150.582 412.632 140.436 407.369 140.55C402.106 140.664 370.604 149.1 368.581 151.228C366.557 153.356 367.365 163.056 369.806 166.067C370.52 166.929 371.456 167.579 372.512 167.947C373.569 168.316 374.706 168.388 375.801 168.157Z" fill="#404B7C"/>
<path d="M376.466 165.155H376.609L378.765 164.3C384.969 160.918 393.272 158.03 398.763 156.12C404.529 154.116 405.052 153.878 404.976 153.27C404.976 153.166 404.976 153.033 404.976 152.89C404.918 151.257 404.332 149.687 403.304 148.416C403.258 148.36 403.197 148.317 403.128 148.294C403.059 148.27 402.985 148.267 402.914 148.283C387.125 151.807 373.645 160.357 373.464 160.443C373.42 160.471 373.381 160.508 373.351 160.551C373.321 160.594 373.3 160.643 373.289 160.694C373.279 160.746 373.279 160.799 373.289 160.85C373.3 160.902 373.32 160.951 373.35 160.994L376.086 164.993C376.128 165.053 376.186 165.1 376.253 165.129C376.32 165.157 376.394 165.166 376.466 165.155ZM378.452 163.578L376.609 164.29L374.3 160.88C376.476 159.54 388.712 152.33 402.867 149.09C403.692 150.193 404.16 151.523 404.206 152.9C404.206 152.995 404.206 153.08 404.206 153.156C402.35 153.983 400.447 154.7 398.506 155.303C393.044 157.27 384.75 160.167 378.461 163.568L378.452 163.578Z" fill="#5C72B5"/>
<path d="M361.342 175.215L369.892 180.165L373.141 174.113L378.604 163.93C376.903 159.712 372.248 160.928 372.248 160.928L363.698 172.138L361.342 175.215Z" fill="#ECBDBB"/>
<path d="M363.698 172.128L361.342 175.206L369.892 180.155L373.141 174.104C371.784 173.151 370.246 172.484 368.623 172.144C366.999 171.805 365.324 171.799 363.698 172.128Z" fill="#404B7C"/>
<path d="M369.237 195.023L375.089 184.041C375.089 184.041 371.697 174.627 364.525 173.325C357.352 172.024 354.455 173.506 354.455 173.506L347.805 183.1C348.692 185.148 349.995 186.99 351.63 188.509C353.265 190.028 355.197 191.191 357.305 191.926C361.139 193.448 365.147 194.488 369.237 195.023Z" fill="#D05663"/>
<path d="M191.359 199.079C191.359 199.079 194.209 226.345 200.697 236.481C217.313 249.097 289.674 278.661 310.603 272.258C331.531 265.855 366.757 193.322 366.757 193.322C366.757 193.322 364.449 181.324 351.614 183.167C351.614 183.167 309.7 224.463 302.423 227.152C298.471 228.615 281.96 220.065 266 209.263C250.962 188.658 238.802 190.083 238.802 190.083L191.359 199.079Z" fill="#6B81BE"/>
<path d="M303.43 273.493C303.533 273.493 303.632 273.452 303.705 273.379C303.779 273.306 303.82 273.207 303.82 273.103C303.82 273 303.779 272.901 303.705 272.828C303.632 272.755 303.533 272.714 303.43 272.714C290.938 272.666 271.529 267.859 248.777 259.177C229.72 251.9 210.929 242.875 200.925 236.168C200.883 236.139 200.835 236.119 200.785 236.109C200.735 236.098 200.683 236.098 200.633 236.108C200.582 236.117 200.535 236.137 200.492 236.165C200.449 236.193 200.412 236.23 200.384 236.272C200.355 236.314 200.335 236.362 200.325 236.412C200.314 236.462 200.314 236.514 200.324 236.564C200.333 236.615 200.353 236.663 200.381 236.705C200.409 236.748 200.446 236.785 200.488 236.814C210.539 243.549 229.387 252.612 248.501 259.908C261.725 264.953 286.501 273.427 303.43 273.503V273.493Z" fill="#D05663"/>
<path d="M302.413 227.56H302.546C306.764 226.002 322.297 211.8 334.581 200.172C334.656 200.1 334.7 200.001 334.703 199.897C334.705 199.793 334.667 199.692 334.595 199.616C334.523 199.541 334.424 199.497 334.32 199.494C334.216 199.491 334.115 199.53 334.039 199.602C316.502 216.217 305.539 225.632 302.271 226.829C302.197 226.868 302.138 226.93 302.102 227.005C302.066 227.081 302.055 227.166 302.071 227.247C302.087 227.329 302.129 227.404 302.191 227.46C302.252 227.517 302.33 227.552 302.413 227.56Z" fill="#D05663"/>
<path d="M242.25 229.574C246.867 229.574 252.121 227.047 252.396 226.914C252.442 226.892 252.484 226.861 252.518 226.822C252.552 226.784 252.578 226.739 252.595 226.691C252.611 226.642 252.618 226.591 252.615 226.539C252.612 226.488 252.599 226.438 252.577 226.392C252.554 226.346 252.523 226.304 252.484 226.27C252.446 226.236 252.401 226.21 252.353 226.193C252.304 226.177 252.253 226.17 252.202 226.173C252.15 226.176 252.1 226.189 252.054 226.211C251.978 226.211 243.951 230.106 239.324 228.311C233.691 226.126 219.374 215.381 219.241 215.277C219.158 215.214 219.053 215.187 218.95 215.201C218.847 215.215 218.753 215.27 218.69 215.353C218.627 215.436 218.6 215.541 218.614 215.644C218.628 215.748 218.683 215.841 218.766 215.904C219.355 216.35 233.311 226.819 239.039 229.042C240.068 229.416 241.156 229.596 242.25 229.574Z" fill="#D05663"/>
<path d="M300.77 248.27C312.911 248.27 346.797 206.29 357.96 190.729C357.99 190.687 358.011 190.64 358.023 190.59C358.035 190.54 358.036 190.488 358.028 190.437C358.02 190.386 358.001 190.338 357.974 190.294C357.947 190.251 357.912 190.213 357.87 190.183C357.828 190.153 357.781 190.131 357.731 190.12C357.68 190.108 357.629 190.106 357.578 190.115C357.527 190.123 357.479 190.141 357.435 190.169C357.391 190.196 357.353 190.231 357.323 190.273C343.073 210.118 310.697 248.574 300.323 247.463C277.523 245.05 228.199 205.511 227.705 205.112C227.666 205.08 227.62 205.055 227.57 205.041C227.521 205.026 227.469 205.021 227.418 205.026C227.367 205.032 227.317 205.047 227.272 205.071C227.227 205.096 227.187 205.129 227.154 205.169C227.122 205.209 227.098 205.255 227.083 205.304C227.068 205.353 227.064 205.405 227.069 205.456C227.074 205.507 227.089 205.557 227.114 205.602C227.138 205.648 227.172 205.688 227.211 205.72C227.335 205.824 239.799 215.847 254.942 226.04C275.3 239.749 290.548 247.216 300.238 248.242L300.77 248.27Z" fill="#D05663"/>
<path d="M115.406 118.567C115.406 118.567 82.783 152.406 75.696 173.876C68.609 195.346 96.7671 192.715 128.174 158.885L115.406 118.567Z" fill="#D05663"/>
<path d="M331.769 4.92801C322.354 42.5575 301.435 83.1985 293.36 98.1135C318.944 103.918 348.688 107.072 383.259 106.416C383.259 106.407 373.274 48.875 331.769 4.92801Z" fill="#404B7C"/>
<path d="M137.693 -46.1535C137.693 -46.1535 142.291 -11.2505 170.772 25.182C186.067 4.16798 213.304 -28.4075 237.956 -50.2195C210.587 -56.9075 175.047 -55.2355 137.693 -46.1535Z" fill="#D05663"/>
<path d="M170.772 25.182C193.372 54.1 231.021 83.968 293.322 98.104C301.397 83.1985 322.316 42.548 331.73 4.91849C309.358 -18.765 278.853 -40.235 237.927 -50.229C213.303 -28.4075 186.067 4.16799 170.772 25.182Z" fill="#6B81BE"/>
<path d="M201.942 188.582C201.998 188.595 202.056 188.595 202.113 188.582L383.429 98.56C383.476 98.5369 383.517 98.505 383.551 98.466C383.584 98.427 383.61 98.3817 383.627 98.3328C383.643 98.2838 383.649 98.2321 383.646 98.1806C383.642 98.1292 383.628 98.0789 383.605 98.0327C383.582 97.9866 383.55 97.9454 383.511 97.9116C383.472 97.8778 383.427 97.852 383.378 97.8357C383.329 97.8193 383.277 97.8128 383.226 97.8165C383.174 97.8201 383.124 97.8339 383.078 97.857L201.771 187.841C201.691 187.879 201.626 187.944 201.587 188.023C201.549 188.103 201.539 188.194 201.559 188.28C201.579 188.366 201.628 188.443 201.697 188.498C201.767 188.553 201.853 188.583 201.942 188.582Z" fill="#D05663"/>
<path d="M133.114 149.376C133.214 149.376 133.31 149.337 133.383 149.268C133.455 149.199 133.498 149.105 133.503 149.005L145.682 -50.077C145.686 -50.1281 145.679 -50.1794 145.662 -50.2279C145.645 -50.2763 145.619 -50.321 145.585 -50.3594C145.551 -50.3977 145.51 -50.429 145.464 -50.4515C145.418 -50.474 145.368 -50.4871 145.317 -50.4902C145.265 -50.4934 145.214 -50.4864 145.166 -50.4697C145.117 -50.453 145.073 -50.4269 145.034 -50.393C144.996 -50.359 144.965 -50.3178 144.942 -50.2717C144.92 -50.2257 144.906 -50.1756 144.903 -50.1245L132.724 148.967C132.721 149.019 132.727 149.071 132.744 149.121C132.76 149.17 132.787 149.215 132.821 149.254C132.856 149.293 132.898 149.325 132.945 149.347C132.992 149.37 133.043 149.383 133.095 149.385L133.114 149.376Z" fill="#D05663"/>
<path d="M188.727 167.616C188.817 167.616 188.904 167.586 188.974 167.53L357.665 33.7795C357.722 33.7573 357.773 33.7219 357.814 33.6763C357.855 33.6307 357.884 33.5762 357.9 33.5171C357.916 33.4581 357.917 33.3961 357.905 33.3363C357.892 33.2765 357.866 33.2205 357.827 33.1729C357.789 33.1252 357.74 33.0872 357.684 33.062C357.629 33.0368 357.568 33.025 357.507 33.0276C357.446 33.0303 357.386 33.0473 357.333 33.0772C357.279 33.1072 357.234 33.1492 357.2 33.2L188.48 166.913C188.413 166.962 188.363 167.032 188.339 167.111C188.314 167.191 188.316 167.277 188.343 167.355C188.371 167.434 188.423 167.502 188.492 167.549C188.561 167.596 188.644 167.619 188.727 167.616Z" fill="#D05663"/>
<path d="M168.568 153.47H168.673C168.759 153.472 168.843 153.443 168.911 153.39C168.979 153.336 169.025 153.26 169.043 153.175C169.357 151.95 200.127 30.35 214.387 -26.65C221.664 -55.6915 221.664 -56.024 221.664 -56.1855C221.664 -56.2367 221.654 -56.2873 221.634 -56.3346C221.614 -56.3818 221.586 -56.4248 221.549 -56.4609C221.513 -56.4971 221.47 -56.5258 221.423 -56.5454C221.376 -56.5649 221.325 -56.575 221.274 -56.575C221.173 -56.5753 221.076 -56.5372 221.002 -56.4684C220.928 -56.3996 220.882 -56.3053 220.875 -56.2045C220.818 -55.7865 219.517 -50.3335 213.627 -26.84C199.377 30.16 168.597 151.76 168.293 152.995C168.266 153.094 168.281 153.2 168.332 153.289C168.384 153.378 168.469 153.443 168.568 153.47Z" fill="#D05663"/>
<path d="M354.122 -72.763C424.108 -7.764 383.258 106.407 383.258 106.407C383.258 106.407 375.658 77.4985 354.473 44.524C356.953 33.4755 369.797 -28.9965 354.122 -72.763Z" fill="#6B81BE"/>
<path d="M234.45 -44.2535C225.587 -46.4111 216.59 -47.9726 207.518 -48.9275C245.518 -78.2065 288.581 -95.81 312.654 -98.6125C320.771 -95.5184 328.543 -91.5863 335.844 -86.88C342.346 -82.7289 348.463 -78.0044 354.122 -72.763C369.787 -28.9965 356.972 33.4755 354.473 44.5335C346.791 32.5401 338.017 21.2823 328.263 10.9035C305.9 -12.78 275.386 -34.25 234.45 -44.2535Z" fill="#D05663"/>
<path d="M115.406 118.567C119.206 160.433 133.456 194.32 145.084 215.742C149.729 224.552 155.059 232.982 161.025 240.955L161.092 241.041C244.369 243.169 258.343 182.996 258.343 182.996C258.343 182.996 231.905 180.564 209.114 138.925C186.324 97.287 164.74 86.856 164.74 86.856C154.626 90.0152 145.009 94.5854 136.173 100.431C128.542 105.614 121.569 111.703 115.406 118.567Z" fill="#D05663"/>
<path d="M135.85 97.496C141.237 95.235 149.73 101.448 155.905 114.216C150.266 113.419 144.556 113.25 138.881 113.712C138.881 113.712 131.186 120.495 128.241 126.48C128.25 126.471 123.814 102.55 135.85 97.496Z" fill="#5C72B5"/>
<path d="M161.595 236.88C176.327 236.375 190.856 233.295 204.525 227.779C214.621 223.616 223.974 217.841 232.218 210.679C245.983 198.681 251.446 186.929 251.493 186.767C251.515 186.721 251.526 186.67 251.528 186.619C251.53 186.568 251.521 186.516 251.503 186.468C251.485 186.42 251.458 186.376 251.423 186.339C251.388 186.301 251.345 186.271 251.299 186.25C251.252 186.229 251.201 186.217 251.15 186.215C251.099 186.213 251.048 186.222 250.999 186.24C250.951 186.258 250.907 186.285 250.87 186.32C250.832 186.356 250.802 186.398 250.781 186.444C250.724 186.558 245.318 198.234 231.667 210.119C219.07 221.091 196.688 234.495 161.557 236.053C161.447 236.059 161.344 236.107 161.27 236.188C161.196 236.269 161.158 236.376 161.163 236.486C161.168 236.595 161.216 236.698 161.297 236.772C161.378 236.846 161.485 236.885 161.595 236.88Z" fill="#ECBDBB"/>
<path d="M145.084 215.742C149.729 224.552 155.059 232.982 161.025 240.955C175.009 229.365 184.3 205.938 184.3 205.938L145.084 215.742Z" fill="#404B7C"/>
<path d="M121.6 155.646H121.695C121.745 155.633 121.792 155.611 121.834 155.581C121.875 155.55 121.91 155.512 121.937 155.468C121.963 155.423 121.981 155.374 121.988 155.323C121.996 155.272 121.993 155.22 121.98 155.171C119.239 144.152 117.267 132.956 116.08 121.664C116.075 121.613 116.059 121.563 116.034 121.518C116.01 121.473 115.976 121.433 115.936 121.401C115.896 121.369 115.85 121.345 115.801 121.331C115.751 121.316 115.699 121.312 115.648 121.317C115.597 121.323 115.548 121.339 115.502 121.363C115.457 121.388 115.418 121.421 115.385 121.462C115.353 121.502 115.329 121.548 115.315 121.597C115.3 121.647 115.296 121.698 115.301 121.75C116.492 133.077 118.47 144.308 121.22 155.361C121.243 155.443 121.293 155.516 121.362 155.568C121.43 155.619 121.514 155.647 121.6 155.646Z" fill="#ECBDBB"/>
<path d="M169.299 147.133L201.115 203.668L219.754 170.637L187.938 114.112L181.896 124.808L175.959 135.344L169.299 147.133Z" fill="#6B81BE"/>
<path d="M175.959 135.344L181.583 145.3C181.747 145.599 181.988 145.849 182.281 146.023C182.574 146.197 182.909 146.289 183.25 146.289C183.591 146.289 183.926 146.197 184.219 146.023C184.513 145.849 184.754 145.599 184.917 145.3L188.109 139.6C188.432 139.019 188.602 138.365 188.602 137.7C188.602 137.035 188.432 136.381 188.109 135.8L181.896 124.761L175.959 135.344Z" fill="#D05663"/>
<path d="M129.694 241.354L97.8785 184.82L169.299 147.133L201.115 203.668L129.694 241.354Z" fill="#6B81BE"/>
<path d="M198.493 199.393C198.561 199.393 198.628 199.376 198.687 199.342C198.746 199.309 198.796 199.26 198.83 199.201C198.865 199.143 198.884 199.076 198.884 199.008C198.885 198.94 198.868 198.873 198.835 198.813L170.962 149.271C170.937 149.226 170.904 149.187 170.863 149.155C170.823 149.123 170.777 149.099 170.728 149.085C170.678 149.071 170.626 149.066 170.575 149.072C170.524 149.078 170.475 149.094 170.43 149.119C170.385 149.144 170.346 149.178 170.314 149.218C170.282 149.258 170.258 149.304 170.244 149.354C170.23 149.403 170.226 149.455 170.231 149.506C170.237 149.557 170.253 149.606 170.278 149.651L198.151 199.193C198.185 199.254 198.235 199.305 198.295 199.34C198.355 199.375 198.423 199.393 198.493 199.393Z" fill="#404B7C"/>
<path d="M156.113 176.726L150.413 166.523C150.299 166.319 150.227 166.094 150.201 165.862C150.175 165.63 150.195 165.395 150.262 165.171C150.328 164.947 150.439 164.738 150.587 164.558C150.736 164.377 150.919 164.228 151.126 164.119L164.768 156.918C165.171 156.707 165.641 156.661 166.077 156.791C166.514 156.92 166.882 157.215 167.105 157.612L172.805 167.815C172.919 168.019 172.992 168.243 173.018 168.476C173.044 168.708 173.023 168.943 172.956 169.167C172.89 169.391 172.779 169.6 172.631 169.78C172.483 169.961 172.299 170.11 172.092 170.218L158.45 177.419C158.047 177.631 157.578 177.677 157.141 177.547C156.705 177.418 156.336 177.123 156.113 176.726Z" fill="#D05663"/>
<path d="M187.938 114.112L116.517 151.798L97.8785 184.82L169.299 147.133L187.938 114.112Z" fill="#6B81BE"/>
<path d="M181.896 124.808L110.485 162.495L104.538 173.03L175.959 135.344L181.896 124.808Z" fill="#D05663"/>
<path d="M101.08 183.528C101.139 183.542 101.201 183.542 101.261 183.528L169.48 147.485C169.548 147.451 169.604 147.398 169.642 147.333L184.357 121.255C184.409 121.165 184.422 121.057 184.395 120.957C184.367 120.856 184.301 120.77 184.21 120.719C184.119 120.667 184.012 120.654 183.911 120.681C183.81 120.709 183.725 120.775 183.673 120.866L169.015 146.849L100.89 182.797C100.814 182.838 100.754 182.904 100.719 182.984C100.685 183.063 100.678 183.152 100.699 183.237C100.721 183.321 100.771 183.395 100.84 183.448C100.909 183.501 100.993 183.529 101.08 183.528Z" fill="#404B7C"/>
<path d="M124.497 221.775C124.817 222.329 125.339 222.738 125.954 222.916C126.569 223.093 127.228 223.024 127.794 222.725L140.144 216.198C140.435 216.044 140.692 215.833 140.901 215.578C141.109 215.323 141.264 215.029 141.357 214.713C141.45 214.397 141.479 214.065 141.442 213.738C141.405 213.411 141.303 213.094 141.141 212.807C140.822 212.252 140.3 211.844 139.685 211.666C139.07 211.489 138.41 211.557 137.845 211.857L125.979 218.117L125.466 218.393C125.179 218.55 124.926 218.762 124.721 219.017C124.516 219.273 124.365 219.567 124.274 219.881C124.184 220.196 124.157 220.525 124.196 220.85C124.234 221.176 124.337 221.49 124.497 221.775Z" fill="#D05663"/>
<path d="M129.342 230.382C129.662 230.937 130.184 231.345 130.799 231.523C131.414 231.7 132.073 231.632 132.639 231.332L144.989 224.796C145.28 224.642 145.537 224.431 145.746 224.176C145.954 223.921 146.109 223.626 146.202 223.31C146.295 222.994 146.324 222.663 146.287 222.336C146.25 222.008 146.148 221.692 145.986 221.405C145.667 220.85 145.145 220.441 144.53 220.264C143.915 220.087 143.255 220.155 142.69 220.455L130.34 226.99C130.049 227.145 129.792 227.356 129.583 227.611C129.375 227.866 129.22 228.16 129.127 228.476C129.034 228.792 129.005 229.124 129.042 229.451C129.079 229.778 129.181 230.095 129.342 230.382Z" fill="#D05663"/>
<path d="M122.142 148.254C122.142 148.254 127.965 141.471 132.934 138.83C137.902 136.189 150.461 134.47 152.589 134.983C154.717 135.496 143.469 139.438 143.469 139.438C143.469 139.438 152.181 137.538 153.701 138.935C155.221 140.331 143.061 142.991 143.061 142.991C143.061 142.991 151.06 141.975 151.972 143.096C152.884 144.217 140.724 147.352 140.724 147.352C140.724 147.352 147.611 145.936 148.932 147.456C150.252 148.976 135.556 151.817 135.052 152.121C134.549 152.425 131.813 155.056 129.181 155.664C126.55 156.272 125.638 154.8 125.638 154.8L122.142 148.254Z" fill="#ECBDBB"/>
<path d="M78.071 185.02C81.7285 191.185 96.71 184.735 111.473 170.827C116.673 165.927 121.414 160.563 125.637 154.8L122.141 148.264C122.141 148.264 112.641 151.276 102.429 155.085C97.679 156.871 92.6915 158.828 88.521 160.738C85.3547 162.163 82.6042 164.372 80.5296 167.156C78.455 169.941 77.1249 173.208 76.665 176.65C76.1876 179.519 76.6824 182.464 78.071 185.02Z" fill="#ECBDBB"/>
<path d="M94.639 158.486C92.9706 157.906 91.1615 157.87 89.471 158.381C86.3265 159.189 69.7205 173.373 75.392 184.421C81.0635 195.47 104.671 183.813 104.158 176.422C103.645 169.031 94.639 158.486 94.639 158.486Z" fill="#D05663"/>
<path d="M103.607 173.914H103.721C103.77 173.9 103.816 173.876 103.857 173.844C103.897 173.812 103.93 173.772 103.955 173.727C103.98 173.682 103.995 173.633 104.001 173.581C104.006 173.53 104.002 173.479 103.987 173.429C101.926 166.456 95.228 158.581 94.943 158.229C94.9069 158.185 94.8615 158.15 94.81 158.125C93.0613 157.506 91.1605 157.463 89.3855 158.001C87.723 158.429 82.9065 162.124 79.135 166.922C79.1032 166.963 79.0797 167.009 79.0658 167.059C79.0519 167.108 79.048 167.16 79.0541 167.211C79.0603 167.262 79.0765 167.312 79.1018 167.357C79.1271 167.402 79.1609 167.441 79.2015 167.473C79.242 167.505 79.2885 167.528 79.3381 167.542C79.3877 167.556 79.4396 167.56 79.4908 167.554C79.5419 167.548 79.5914 167.531 79.6363 167.506C79.6812 167.481 79.7207 167.447 79.7525 167.406C83.6475 162.447 88.3025 159.094 89.585 158.752C91.166 158.289 92.8489 158.305 94.4205 158.799C95.1045 159.616 101.337 167.159 103.246 173.619C103.266 173.701 103.313 173.774 103.378 173.827C103.443 173.88 103.523 173.91 103.607 173.914Z" fill="#ECBDBB"/>
<path d="M104.728 176.65C106.96 174.892 109.221 172.935 111.482 170.807C101.602 166.371 102.087 157.507 102.429 155.047C99.7499 156.044 97.0234 157.099 94.4109 158.172C93.7428 158.444 93.1605 158.891 92.7257 159.466C92.2909 160.042 92.0197 160.724 91.9409 161.44C91.4944 165.592 92.1214 172.717 100.244 177.058C100.95 177.435 101.75 177.597 102.547 177.524C103.344 177.451 104.102 177.148 104.728 176.65Z" fill="#5C72B5"/>
<path d="M164.74 86.856C183.284 82.4005 241.3 107.623 249.85 122.215C258.4 136.807 244.331 162.685 239.058 166.741C233.786 170.798 220.115 164.765 218.7 160.509C217.284 156.253 224.4 133.966 224.4 133.966C224.4 133.966 196.85 125.255 182.457 119.374C168.065 113.494 164.74 86.856 164.74 86.856Z" fill="#D05663"/>
<path d="M196.982 125.198C197.076 125.201 197.168 125.17 197.241 125.111C197.314 125.052 197.363 124.968 197.38 124.876C197.396 124.783 197.378 124.688 197.329 124.607C197.281 124.527 197.205 124.467 197.115 124.438C191.168 122.339 186.295 120.514 182.618 119.013C171.275 114.377 166.896 96.7075 165.518 89.326C165.5 89.224 165.441 89.1336 165.355 89.0748C165.27 89.016 165.165 88.9936 165.062 89.0125C164.96 89.0314 164.87 89.0901 164.811 89.1756C164.752 89.2611 164.73 89.3665 164.749 89.4685C166.126 96.9735 170.601 114.957 182.305 119.745C185.991 121.246 190.855 123.08 196.84 125.179L196.982 125.198Z" fill="#ECBDBB"/>
<path d="M226.1 133.853C226.199 133.853 226.294 133.815 226.366 133.748C233.966 126.737 245.546 126.357 245.66 126.357C245.712 126.356 245.762 126.344 245.809 126.324C245.856 126.303 245.898 126.273 245.933 126.236C245.968 126.199 245.996 126.156 246.014 126.108C246.033 126.06 246.042 126.009 246.04 125.958C246.039 125.907 246.028 125.856 246.007 125.81C245.986 125.763 245.957 125.721 245.92 125.685C245.883 125.65 245.839 125.622 245.791 125.604C245.743 125.586 245.693 125.577 245.641 125.578C245.518 125.578 233.652 125.968 225.834 133.178C225.777 133.231 225.737 133.301 225.72 133.377C225.702 133.453 225.708 133.533 225.737 133.606C225.766 133.679 225.816 133.741 225.881 133.785C225.945 133.829 226.022 133.853 226.1 133.853Z" fill="#ECBDBB"/>
<path d="M228.769 133.853H228.874C237.756 131.288 243.285 132.903 243.342 132.903C243.442 132.933 243.549 132.922 243.641 132.873C243.733 132.824 243.801 132.741 243.832 132.641C243.862 132.542 243.851 132.434 243.802 132.343C243.753 132.251 243.67 132.182 243.57 132.152C243.342 132.076 237.785 130.423 228.655 133.102C228.574 133.134 228.505 133.194 228.461 133.27C228.417 133.347 228.401 133.436 228.414 133.523C228.427 133.61 228.469 133.69 228.534 133.75C228.599 133.81 228.682 133.846 228.769 133.853Z" fill="#ECBDBB"/>
<path d="M238.811 165.639L231.601 176.707C231.601 176.707 220.201 177.467 216.287 169.059L220.818 158.685C220.818 158.685 232.38 156.633 238.811 165.639Z" fill="#5C72B5"/>
<path d="M231.506 175.5L215.194 193.484C215.194 193.484 207.442 208.532 205.01 210.052C202.578 211.572 187.54 209.9 186.628 208.684C185.716 207.468 189.867 203.934 192.907 202.756C195.146 201.932 197.45 201.296 199.795 200.856L203.851 194.576C203.851 194.576 198.579 195.526 198.275 195.593C196.6 196.204 194.869 196.646 193.107 196.913C191.786 196.913 192.299 195.194 196.451 192.458C200.602 189.722 207.395 189 207.395 189L217.018 169.145C217.018 169.145 223.602 166.437 231.506 175.5Z" fill="#ECBDBB"/>
<path d="M191.843 205.53C195.32 205.34 200.583 205.065 201.039 205.074C201.134 205.093 201.232 205.077 201.315 205.027C201.399 204.978 201.46 204.899 201.489 204.807C201.517 204.714 201.51 204.615 201.469 204.527C201.428 204.44 201.356 204.37 201.267 204.333C201.143 204.276 201.077 204.238 191.767 204.751C191.716 204.756 191.666 204.771 191.621 204.795C191.575 204.819 191.535 204.852 191.503 204.892C191.47 204.932 191.445 204.977 191.431 205.027C191.416 205.076 191.41 205.127 191.415 205.178C191.42 205.23 191.435 205.279 191.46 205.325C191.484 205.37 191.517 205.41 191.556 205.443C191.596 205.475 191.642 205.5 191.691 205.515C191.74 205.53 191.792 205.535 191.843 205.53Z" fill="#404B7C"/>
<path d="M190 208.494L202.16 207.886C202.211 207.884 202.261 207.871 202.308 207.849C202.354 207.827 202.396 207.797 202.43 207.759C202.464 207.721 202.491 207.676 202.508 207.628C202.526 207.58 202.533 207.529 202.531 207.478C202.523 207.375 202.477 207.279 202.401 207.21C202.324 207.141 202.225 207.104 202.122 207.107L189.962 207.715C189.859 207.72 189.762 207.766 189.692 207.843C189.623 207.919 189.586 208.02 189.592 208.124C189.597 208.227 189.642 208.324 189.719 208.393C189.796 208.463 189.897 208.499 190 208.494Z" fill="#404B7C"/>
<path d="M98.0875 79.8735C100.311 88.4805 117.743 94.361 134.758 91.2735C148.542 88.813 146.043 79.636 144.599 76.2445C144.324 75.5985 144.087 75.171 144.02 75.038C144.02 75.038 152.931 70.288 153.843 68.1505C154.755 66.013 145.939 65.1105 145.939 65.1105C145.939 65.1105 149.587 62.6785 149.483 60.7595C149.378 58.8405 137.019 54.9835 130.236 55.487C130.236 55.487 134.387 48.2955 133.883 44.9515C133.38 41.6075 127.405 44.6475 119.7 48.191C111.996 51.7345 103.997 56.5035 104.5 69.4615C104.5 69.4615 98.2015 70.7915 97.774 76.5675C97.6983 77.6792 97.8042 78.7958 98.0875 79.8735Z" fill="#404B7C"/>
<path d="M123.709 95.7765L129.551 102.825L133 107.015L137.56 109.447C139.08 107.319 139.783 103.063 139.783 103.063L133.37 89.839L131.774 86.552L123.709 95.7765Z" fill="#ECBDBB"/>
<path d="M123.709 95.7765L129.551 102.826C133.541 99.1395 133.893 93.829 133.408 89.8485L131.812 86.5615L123.709 95.7765Z" fill="#404B7C"/>
<path d="M113.05 66.754C126.635 58.6505 133.409 76.026 133.257 86.0485C133.105 96.0711 123.377 105.191 112.594 93.3446C101.812 81.498 104.415 71.9125 113.05 66.754Z" fill="#ECBDBB"/>
<path d="M130.397 77.7455C130.397 77.7455 132.63 70.25 137.484 71.466C142.339 72.682 140.125 84.025 132.05 83.113L130.397 77.7455Z" fill="#ECBDBB"/>
<path d="M133.437 80.206C133.535 80.2063 133.63 80.1692 133.703 80.1022C133.775 80.0352 133.819 79.9433 133.826 79.845C133.843 78.5664 134.223 77.3189 134.923 76.2488C135.623 75.1787 136.613 74.3303 137.778 73.803C137.877 73.769 137.957 73.6974 138.003 73.6038C138.048 73.5103 138.055 73.4025 138.021 73.3043C137.987 73.206 137.915 73.1253 137.821 73.0799C137.728 73.0344 137.62 73.028 137.522 73.062C137.351 73.119 133.437 74.5345 133.038 79.788C133.034 79.8392 133.04 79.8906 133.056 79.9394C133.072 79.9881 133.098 80.0332 133.132 80.0721C133.165 80.1109 133.206 80.1427 133.252 80.1657C133.298 80.1887 133.348 80.2024 133.399 80.206H133.437Z" fill="#404B7C"/>
<path d="M137.275 79.028C137.341 79.0291 137.406 79.0136 137.464 78.9828C137.522 78.952 137.571 78.907 137.607 78.852C137.643 78.797 137.665 78.7338 137.67 78.6682C137.675 78.6026 137.663 78.5368 137.636 78.477C137.055 77.2384 136.145 76.1834 135.005 75.4275C134.915 75.378 134.81 75.3655 134.712 75.3927C134.613 75.42 134.529 75.4849 134.478 75.5733C134.427 75.6618 134.413 75.7667 134.439 75.8656C134.464 75.9645 134.528 76.0494 134.615 76.102C135.611 76.7801 136.408 77.7114 136.924 78.8C136.954 78.8675 137.004 78.9249 137.066 78.9653C137.128 79.0057 137.201 79.0274 137.275 79.028Z" fill="#404B7C"/>
<path d="M116.983 91.302C117.724 91.2903 118.463 91.2043 119.187 91.0455C119.289 91.0228 119.378 90.9606 119.434 90.8724C119.49 90.7842 119.509 90.6773 119.486 90.5753C119.464 90.4732 119.401 90.3844 119.313 90.3283C119.225 90.2721 119.118 90.2534 119.016 90.276C117.809 90.542 115.9 90.6655 115.434 90.124C115.362 90.0159 115.323 89.8886 115.323 89.7583C115.323 89.628 115.362 89.5006 115.434 89.3925C116.008 87.5263 116.093 85.544 115.681 83.6355C115.67 83.5856 115.648 83.5385 115.618 83.497C115.588 83.4554 115.55 83.4202 115.506 83.3932C115.463 83.3663 115.414 83.3483 115.364 83.3402C115.313 83.332 115.261 83.3339 115.211 83.3458C115.161 83.3576 115.114 83.3792 115.073 83.4092C115.031 83.4393 114.996 83.4772 114.969 83.5209C114.942 83.5646 114.924 83.6131 114.916 83.6637C114.908 83.7144 114.91 83.7661 114.921 83.816C115.293 85.5735 115.218 87.3961 114.703 89.117C114.58 89.3584 114.529 89.6299 114.556 89.8993C114.583 90.1687 114.687 90.4247 114.855 90.637C115.147 90.8852 115.486 91.072 115.851 91.1863C116.217 91.3005 116.602 91.3399 116.983 91.302Z" fill="#404B7C"/>
<path d="M117.306 78.914C117.306 78.914 116.356 76.4725 116.679 75.7505C117.002 75.0285 117.629 76.1115 117.629 76.1115C117.629 76.1115 121.837 72.891 124.687 77.3085C124.735 77.3085 121.41 75.7505 117.306 78.914Z" fill="#404B7C"/>
<path d="M112.176 81.118C112.176 81.118 111.15 78.686 110.495 78.325C109.839 77.964 110.21 79.1515 110.21 79.1515C110.21 79.1515 105.953 78.9805 107.255 83.9585C107.255 83.968 108.005 80.928 112.176 81.118Z" fill="#404B7C"/>
<path d="M124.859 96.09C124.172 96.5286 123.381 96.778 122.567 96.813C121.753 96.8481 120.944 96.6675 120.223 96.2895C119.603 95.983 119.04 95.5716 118.56 95.0735C120.464 92.6347 122.919 90.6815 125.723 89.3735C125.979 89.843 126.189 90.3361 126.35 90.846C126.825 92.404 127.091 94.7505 124.859 96.09Z" fill="#404B7C"/>
<path d="M126.35 90.8745C123.795 92.0008 121.656 93.8974 120.232 96.299C119.612 95.9924 119.05 95.5811 118.57 95.083C120.474 92.6442 122.928 90.6909 125.733 89.383C125.987 89.8588 126.193 90.3584 126.35 90.8745Z" fill="white"/>
<path d="M119.718 83.4163C119.13 82.1625 119.469 80.7629 120.476 80.2901C121.482 79.8174 122.776 80.4506 123.365 81.7045C123.953 82.9583 123.614 84.3579 122.607 84.8306C121.6 85.3033 120.307 84.6701 119.718 83.4163Z" fill="#404B7C"/>
<path d="M120.507 83.113C120.124 83.113 119.814 82.8025 119.814 82.4195C119.814 82.0364 120.124 81.726 120.507 81.726C120.89 81.726 121.201 82.0364 121.201 82.4195C121.201 82.8025 120.89 83.113 120.507 83.113Z" fill="white"/>
<path d="M109.951 87.5646C109.362 86.3107 109.701 84.9111 110.708 84.4384C111.715 83.9657 113.009 84.5989 113.597 85.8527C114.186 87.1065 113.847 88.5061 112.84 88.9788C111.833 89.4516 110.54 88.8184 109.951 87.5646Z" fill="#404B7C"/>
<path d="M110.751 87.255C110.368 87.255 110.058 86.9445 110.058 86.5615C110.058 86.1785 110.368 85.868 110.751 85.868C111.134 85.868 111.445 86.1785 111.445 86.5615C111.445 86.9445 111.134 87.255 110.751 87.255Z" fill="white"/>
<path d="M133.133 75.817C132.839 75.9025 117.23 82.4005 109.526 69.5375C101.821 56.6745 117.43 56.57 126.844 60.218C136.259 63.866 126.037 64.5785 126.037 64.5785C126.037 64.5785 141.75 73.2805 133.133 75.817Z" fill="#404B7C"/>
</svg>
